<?xml version="1.0" standalone="no"?>
<!DOCTYPE svg PUBLIC "-//W3C//DTD SVG 1.1//EN" "http://www.w3.org/Graphics/SVG/1.1/DTD/svg11.dtd">
<svg xmlns="http://www.w3.org/2000/svg" xmlns:xlink="http://www.w3.org/1999/xlink" id="b" data-name="レイヤー 2" viewBox="0 0 368.27 200.98" width="368.2699890136719" height="200.97999572753906">
  <defs>
    <style>
      .e {
        fill: url(#d);
      }
    </style>
    <linearGradient id="d" data-name="名称未設定グラデーション 120" x1="0" y1="100.49" x2="368.27" y2="100.49" gradientUnits="userSpaceOnUse">
      <stop offset="0" stop-color="#8760fc"/>
      <stop offset=".21" stop-color="#8072f8"/>
      <stop offset=".64" stop-color="#71a2f0"/>
      <stop offset="1" stop-color="#62d0e9"/>
    </linearGradient>
  </defs>
  <g id="c" data-name="レイヤー 1">
    <path class="e" d="M31.69,101.62h-10.94v-2.65h10.94v2.65ZM51.78,92.92c1.12-.51,2.41-.77,3.85-.77.94,0,1.83.14,2.67.4.83.25,1.54.6,2.12,1.06.58.46.98.99,1.19,1.58l4.77-.9c-.28-1.14-.93-2.14-1.96-3-1.02-.86-2.29-1.53-3.81-2-1.52-.48-3.18-.73-4.98-.73s-3.56.24-5.1.71c-1.53.47-2.85,1.15-3.96,2.02-1.11.86-1.97,1.9-2.58,3.1-.6,1.21-.9,2.54-.9,4,0,1.38.28,2.64.85,3.77.58,1.14,1.4,2.12,2.46,2.96,1.05.83,2.31,1.47,3.77,1.92,1.46.44,3.06.67,4.81.67,1.36,0,2.63-.16,3.81-.48,1.19-.32,2.26-.77,3.21-1.35.96-.58,1.73-1.27,2.31-2.06h.02l.25,3.4h4.08v-10.29h-16.33v2.77h11.38c-.04.88-.39,1.66-1.04,2.35-.66.68-1.53,1.22-2.62,1.62-1.08.39-2.31.58-3.67.58-1.6,0-3.02-.25-4.25-.75-1.22-.51-2.18-1.22-2.88-2.12-.68-.9-1.02-1.94-1.02-3.1s.31-2.29.94-3.21c.62-.92,1.49-1.63,2.6-2.15ZM72.22,89.06h13.96c2.44,0,4.32.54,5.62,1.6,1.32,1.07,1.98,2.59,1.98,4.56s-.66,3.41-1.98,4.46c-1.32,1.06-3.2,1.58-5.65,1.58h-8.81v5.94h-5.12v-18.15ZM77.34,98.19h7.27c1.3,0,2.3-.26,3-.79.69-.53,1.04-1.27,1.04-2.23s-.35-1.7-1.04-2.23c-.7-.53-1.7-.79-3-.79h-7.27v6.04ZM108.54,107.21v-14.42h7.6v-3.73h-20.33v3.73h7.6v14.42h5.12ZM130.99,104.54c-.79.27-1.92.4-3.38.4-1.1,0-2.16-.11-3.19-.33-1.03-.22-1.96-.52-2.79-.9-.82-.39-1.47-.82-1.96-1.31l-1.52,2.33c.59.57,1.4,1.08,2.4,1.52,1.01.43,2.15.77,3.42,1.02,1.28.26,2.57.4,3.9.4,1.61,0,3.05-.17,4.33-.5,1.28-.33,2.28-.84,3-1.52.73-.68,1.1-1.53,1.1-2.54,0-1.29-.58-2.23-1.75-2.81-1.17-.58-2.83-.96-4.98-1.12l-3.42-.31c-.93-.08-1.64-.21-2.12-.38-.47-.18-.71-.46-.71-.83,0-.43.39-.77,1.17-1.02.78-.25,1.73-.38,2.88-.38,1.22,0,2.4.18,3.54.52,1.15.35,2.07.79,2.75,1.33l1.4-2.19c-.93-.69-2.07-1.23-3.42-1.62-1.35-.39-2.75-.58-4.21-.58-1.56,0-2.95.17-4.19.5-1.24.33-2.2.83-2.9,1.5-.7.66-1.04,1.48-1.04,2.48,0,1.17.54,2.04,1.62,2.6,1.09.56,2.65.91,4.65,1.06l3.4.29c1.04.1,1.83.24,2.38.44.55.2.83.49.83.88,0,.45-.4.81-1.19,1.08ZM172.05,100.58l-4.73-.92c-.36,1.32-1.2,2.38-2.5,3.17-1.29.78-2.87,1.17-4.73,1.17-1.6,0-2.99-.24-4.17-.73-1.17-.48-2.08-1.17-2.73-2.04-.64-.88-.97-1.9-.98-3.08,0-1.21.29-2.25.88-3.12s1.4-1.55,2.46-2.02c1.07-.48,2.32-.73,3.77-.73,1.55,0,2.9.34,4.04,1.02,1.14.67,1.9,1.58,2.27,2.73l4.65-1.08c-.43-1.32-1.17-2.45-2.21-3.4-1.04-.96-2.33-1.69-3.85-2.21-1.52-.51-3.19-.77-5.02-.77-2.47,0-4.62.39-6.44,1.17-1.81.78-3.2,1.89-4.19,3.33-.99,1.43-1.48,3.12-1.48,5.08s.52,3.7,1.56,5.12c1.05,1.42,2.55,2.52,4.48,3.29,1.93.76,4.21,1.15,6.85,1.15,2.09,0,3.98-.29,5.67-.85,1.68-.58,3.07-1.41,4.19-2.48,1.12-1.07,1.86-2.33,2.21-3.79ZM179.66,97.4v-9.08h-4.67v18.9h4.65v-5.92c0-1.48.46-2.65,1.38-3.48.92-.83,2.17-1.25,3.77-1.25,1.34,0,2.39.34,3.12,1.02.75.68,1.12,1.62,1.12,2.81v6.81h4.67v-7.29c.01-1.29-.27-2.4-.83-3.31-.57-.93-1.39-1.65-2.44-2.15-1.04-.5-2.27-.75-3.69-.75-1.71,0-3.16.33-4.35,1-1.2.66-2.1,1.55-2.71,2.69h-.02ZM218.74,104.1l1.06,2.19c-.39.43-.96.77-1.71,1-.75.25-1.58.38-2.48.38-1.25,0-2.27-.27-3.04-.81-.77-.55-1.2-1.3-1.31-2.25l-.02-.33h-.02c-.62,1.03-1.67,1.85-3.12,2.48-1.46.61-3.12.92-4.98.92-2.11,0-3.76-.31-4.94-.94-1.17-.62-1.75-1.53-1.75-2.73,0-1.26.71-2.3,2.15-3.1,1.43-.82,3.49-1.34,6.19-1.58l5.58-.48c.61-.05.92-.27.92-.65,0-.47-.41-.86-1.23-1.19-.81-.33-1.86-.5-3.17-.5-1.1,0-2.2.12-3.29.35-1.08.22-2.11.54-3.08.96-.97.41-1.81.88-2.5,1.42l-1.4-2.5c.72-.61,1.62-1.14,2.71-1.58,1.09-.46,2.29-.81,3.58-1.06s2.6-.38,3.94-.38c1.75,0,3.3.2,4.65.58,1.36.38,2.42.93,3.19,1.67.78.74,1.17,1.64,1.17,2.69v4.92c0,.38.11.68.33.9.23.22.56.33.98.33.3,0,.59-.06.88-.19.29-.14.53-.3.73-.5ZM211.19,101.08l-6.1.52c-2.67.21-4,.77-4,1.69s1.17,1.44,3.5,1.44c1.29,0,2.43-.14,3.42-.42,1-.29,1.78-.69,2.33-1.19.57-.5.85-1.07.85-1.71v-.33ZM226.95,88.31h-4.67v18.9h4.67v-18.9ZM235.04,107.21v-18.9h-4.67v18.9h4.67ZM238.1,100.62c0-1.34.42-2.54,1.25-3.58.84-1.04,2.01-1.85,3.5-2.44,1.5-.59,3.21-.9,5.15-.9s3.57.29,5,.88c1.44.58,2.57,1.4,3.38,2.44.8,1.03,1.21,2.24,1.21,3.65,0,.16-.01.35-.02.58-.02.22-.05.43-.1.6h-14.4c.19.62.59,1.16,1.19,1.6.59.43,1.33.76,2.21.98.88.22,1.81.33,2.81.33s1.88-.07,2.77-.23c.89-.15,1.7-.36,2.44-.65.75-.28,1.35-.58,1.81-.92l1.48,2.33c-.6.47-1.36.89-2.29,1.25-.92.35-1.94.62-3.06.81-1.12.19-2.29.29-3.5.29-2.12,0-4-.29-5.62-.88-1.62-.58-2.9-1.4-3.81-2.46-.92-1.07-1.38-2.3-1.38-3.71ZM242.95,99.58h9.92c-.06-.62-.31-1.17-.77-1.62-.45-.47-1.03-.83-1.75-1.08-.72-.26-1.53-.4-2.42-.4s-1.7.14-2.42.4c-.72.27-1.31.64-1.77,1.1-.45.46-.71.99-.79,1.6ZM276.52,94.46c-1.04-.5-2.27-.75-3.69-.75-1.71,0-3.19.33-4.44,1-1.24.66-2.16,1.55-2.75,2.69h-.02l-.5-3.23h-4.04v13.04h4.65v-5.92c0-1.48.46-2.65,1.38-3.48.92-.83,2.17-1.25,3.77-1.25,1.34,0,2.39.34,3.12,1.02.75.68,1.12,1.62,1.12,2.81v6.81h4.67v-7.29c.01-1.29-.27-2.4-.83-3.31-.57-.93-1.39-1.65-2.44-2.15ZM290.95,113.02c-2,0-3.83-.19-5.5-.56-1.66-.38-2.96-.88-3.92-1.5l1.67-3.15c.94.59,2.08,1.07,3.42,1.44,1.34.36,2.73.54,4.17.54,2.18,0,3.91-.4,5.19-1.19,1.28-.78,1.92-1.84,1.92-3.19v-.88h-.02c-.38.56-.92,1.04-1.62,1.46-.71.42-1.53.74-2.46.98-.93.23-1.93.35-2.98.35-1.62,0-3.06-.28-4.29-.83-1.22-.57-2.18-1.35-2.85-2.35-.67-1.01-1-2.2-1-3.56s.34-2.59,1.02-3.62c.69-1.03,1.66-1.82,2.9-2.4,1.23-.57,2.69-.85,4.38-.85,1.07,0,2.06.16,2.98.46.92.31,1.71.73,2.4,1.27.69.54,1.21,1.18,1.56,1.92h.02l.62-3.21h4.02v11.21c0,1.56-.47,2.91-1.42,4.06-.95,1.17-2.29,2.05-4.02,2.67-1.74.62-3.79.94-6.17.94ZM298.06,100.71c0-1.17-.5-2.1-1.5-2.81-.99-.72-2.29-1.08-3.9-1.08s-2.89.36-3.88,1.08c-.99.71-1.48,1.65-1.48,2.81,0,.77.22,1.44.67,2.02.46.57,1.09,1.02,1.9,1.35.8.32,1.73.48,2.79.48,1.61,0,2.91-.35,3.9-1.06,1-.72,1.5-1.65,1.5-2.79ZM323.79,102.98l1.48,2.33c-.6.47-1.36.89-2.29,1.25-.92.35-1.94.62-3.06.81-1.12.19-2.29.29-3.5.29-2.12,0-4-.29-5.62-.88-1.62-.58-2.9-1.4-3.81-2.46-.92-1.07-1.38-2.3-1.38-3.71s.42-2.54,1.25-3.58c.84-1.04,2.01-1.85,3.5-2.44,1.5-.59,3.21-.9,5.15-.9s3.57.29,5,.88c1.44.58,2.57,1.4,3.38,2.44.8,1.03,1.21,2.24,1.21,3.65,0,.16-.01.35-.02.58-.02.22-.05.43-.1.6h-14.4c.19.62.59,1.16,1.19,1.6.59.43,1.33.76,2.21.98.88.22,1.81.33,2.81.33s1.88-.07,2.77-.23c.89-.15,1.7-.36,2.44-.65.75-.28,1.35-.58,1.81-.92ZM310.46,99.58h9.92c-.06-.62-.31-1.17-.77-1.62-.45-.47-1.03-.83-1.75-1.08-.72-.26-1.53-.4-2.42-.4s-1.7.14-2.42.4c-.72.27-1.31.64-1.77,1.1-.45.46-.71.99-.79,1.6ZM336.68,101.62h10.94v-2.65h-10.94v2.65ZM47.79,43.5h33.65l-.08-13.65h-33.56v-5.06c0-2.03.43-3.89,1.29-5.58.86-1.69,2.03-3.04,3.52-4.04,1.48-1.01,3.11-1.52,4.9-1.52h23.94V0h-28.12c-3.18,0-6.11.66-8.79,1.98-2.67,1.31-5,3.08-7,5.33-1.99,2.25-3.53,4.81-4.62,7.67-1.08,2.85-1.62,5.81-1.62,8.9v50.17h16.52v-30.54ZM101.12,58.02c2.83,1.58,5.92,2.38,9.25,2.38h28.42V13.65h-15.92v33.1h-8.71c-1.86,0-3.28-.34-4.25-1.04-.96-.71-1.59-1.63-1.9-2.77-.29-1.14-.44-2.31-.44-3.52V13.65h-15.92v28.79c0,3.39.86,6.44,2.6,9.15,1.75,2.7,4.03,4.84,6.85,6.44ZM154.4,56.31c1.57,1.31,3.28,2.31,5.15,3.02,1.88.71,3.72,1.06,5.54,1.06h15.69v-13.65h-10.23c-1.72,0-3.06-.39-4.02-1.17-.96-.78-1.44-2.05-1.44-3.83v-14.46h15.69v-13.65h-15.69V0h-15.92v45.77c0,2.12.48,4.08,1.44,5.88s2.22,3.35,3.79,4.67ZM200.46,58.02c2.83,1.58,5.92,2.38,9.25,2.38h28.42V13.65h-15.92v33.1h-8.71c-1.86,0-3.28-.34-4.25-1.04-.96-.71-1.59-1.63-1.9-2.77-.29-1.14-.44-2.31-.44-3.52V13.65h-15.92v28.79c0,3.39.86,6.44,2.6,9.15,1.75,2.7,4.03,4.84,6.85,6.44ZM264.43,35.02c0-2.12.71-3.94,2.12-5.46,1.42-1.51,3.13-2.27,5.15-2.27h6.38v-13.65h-13.65c-2.93,0-5.6.79-8,2.35-2.39,1.56-4.31,3.66-5.75,6.31-1.45,2.66-2.17,5.6-2.17,8.83v29.25h15.92v-25.38ZM292.38,54.15c2.48,2.04,5.3,3.6,8.46,4.67,3.15,1.06,6.42,1.58,9.81,1.58h26.9v-13.65h-25.6c-1.88,0-3.58-.42-5.12-1.27-1.54-.86-2.77-2.06-3.69-3.6-.91-1.54-1.35-3.27-1.35-5.19,0-2.73.94-4.98,2.81-6.75,1.88-1.76,4.32-2.65,7.35-2.65h8.19l-11.23,15.52h18.04l10.6-15.52v-13.65h-26.81c-3.6,0-6.99.64-10.17,1.9-3.18,1.27-5.99,2.99-8.42,5.19-2.42,2.2-4.32,4.68-5.71,7.46-1.39,2.78-2.08,5.66-2.08,8.65,0,3.68.71,6.98,2.15,9.9,1.44,2.91,3.4,5.38,5.88,7.42ZM87.4,132.1c-2.04-1.67-4.33-2.94-6.85-3.83-2.53-.89-5.12-1.33-7.79-1.33h-18.42v11c-2.07-3.33-4.66-6-7.77-8-3.11-2-6.46-3-10.04-3H0v60.4h16.52v-46.75h14.85c1.36,0,2.61.47,3.75,1.42,1.14.93,2.03,2.09,2.69,3.48.65,1.39.98,2.77.98,4.12v37.73h16.52v-46.75h14.17c1.47,0,2.81.48,4.02,1.44,1.21.96,2.19,2.15,2.94,3.56.76,1.42,1.15,2.85,1.15,4.31v37.44h16.52v-41.44c0-2.89-.6-5.49-1.81-7.81-1.21-2.32-2.84-4.31-4.9-5.98ZM118.09,142.52c-2.75,1.28-5.15,3.01-7.19,5.19-2.04,2.17-3.64,4.64-4.77,7.4-1.14,2.75-1.71,5.61-1.71,8.58s.6,5.95,1.81,8.75c1.21,2.81,2.89,5.33,5.04,7.58,2.15,2.25,4.59,4.04,7.31,5.35,2.72,1.31,5.6,1.96,8.65,1.96h9.77v-13.65h-5c-1.92,0-3.65-.44-5.19-1.31-1.54-.89-2.76-2.09-3.65-3.6-.89-1.51-1.33-3.15-1.33-4.92,0-2.89.96-5.21,2.88-6.98,1.93-1.76,4.31-2.65,7.15-2.65h8.77v33.1h15.92v-46.75h-29.48c-3.22,0-6.22.65-8.98,1.94ZM199.74,144.98c0,1.52-.48,2.97-1.44,4.35-.96,1.39-2.18,2.53-3.65,3.42-1.46.88-2.95,1.31-4.46,1.31h-6.67v-27.12h-15.92v60.4h15.92v-19.62h6.67c1.61,0,3.15.43,4.6,1.29,1.47.86,2.66,1.96,3.56,3.29.92,1.33,1.38,2.79,1.38,4.35v10.69h15.92v-11.52c0-3.28-.88-6.3-2.62-9.08-1.74-2.78-4.27-4.7-7.6-5.77,1.82-.29,3.51-1.07,5.08-2.33,1.57-1.26,2.82-2.79,3.75-4.58.93-1.8,1.4-3.59,1.4-5.35v-8.1h-15.92v4.4ZM242.02,142.48c-3.18,1.27-5.99,2.99-8.42,5.19-2.42,2.2-4.32,4.68-5.71,7.46-1.39,2.78-2.08,5.66-2.08,8.65,0,3.68.71,6.98,2.15,9.9,1.44,2.91,3.4,5.38,5.88,7.42,2.48,2.04,5.3,3.6,8.46,4.67,3.15,1.06,6.42,1.58,9.81,1.58h26.9v-13.65h-25.6c-1.88,0-3.58-.42-5.12-1.27-1.54-.86-2.77-2.06-3.69-3.6-.91-1.54-1.35-3.27-1.35-5.19,0-2.73.94-4.98,2.81-6.75,1.88-1.76,4.32-2.65,7.35-2.65h8.19l-11.23,15.52h18.04l10.6-15.52v-13.65h-26.81c-3.6,0-6.99.64-10.17,1.9ZM297.98,142.93c-2.39,1.56-4.31,3.66-5.75,6.31-1.45,2.66-2.17,5.6-2.17,8.83v29.25h15.92v-25.38c0-2.12.71-3.94,2.12-5.46,1.42-1.51,3.13-2.27,5.15-2.27h6.38v-13.65h-13.65c-2.93,0-5.6.79-8,2.35ZM366.66,168.81c-1.06-2.61-2.41-4.89-4.04-6.83-1.64-1.94-3.4-3.65-5.27-5.1-1.86-1.47-3.62-2.82-5.29-4.06-1.67-1.23-3.04-2.49-4.1-3.77-1.06-1.29-1.61-2.69-1.67-4.21,0-1.32.33-2.73,1-4.25h-16.46c-.81,2.32-1.21,4.44-1.21,6.35,0,2.58.51,4.91,1.52,6.98,1.01,2.07,2.32,3.98,3.94,5.73,1.62,1.74,3.34,3.36,5.15,4.88,1.82,1.52,3.53,3.01,5.15,4.48,1.62,1.46,2.94,2.95,3.96,4.48,1.01,1.52,1.52,3.12,1.52,4.83,0,2.22-.58,4.01-1.75,5.35-1.17,1.33-2.68,2.28-4.52,2.83-1.83.56-3.81.83-5.94.83h-10.08v13.65h14.33c3.33,0,6.51-.49,9.54-1.46,3.03-.96,5.73-2.39,8.1-4.27,2.38-1.89,4.26-4.28,5.65-7.17,1.39-2.88,2.08-6.23,2.08-10.06,0-3.54-.54-6.61-1.6-9.21Z"/>
  </g>
</svg>